<svg xmlns="http://www.w3.org/2000/svg" viewBox="0 0 512 512">
  <defs>
    <linearGradient id="g" x1="0" y1="0" x2="1" y2="1">
      <stop offset="0" stop-color="#6366f1"/>
      <stop offset="1" stop-color="#4f46e5"/>
    </linearGradient>
  </defs>
  <rect width="512" height="512" rx="112" fill="url(#g)"/>
  <path fill="#fff" d="M256 120c-79.5 0-144 52.4-144 117 0 36.6 20.8 69.2 53.3 90.7-2.3 19.6-9.4 37.4-21.2 53.1-2.5 3.3.2 8 4.3 7.4 30-4.3 54.7-15.6 73.4-29.8 11 2.1 22.5 3.3 34.2 3.3 79.5 0 144-52.4 144-117S335.5 120 256 120z"/>
  <circle cx="200" cy="237" r="16" fill="#4f46e5"/>
  <circle cx="256" cy="237" r="16" fill="#4f46e5"/>
  <circle cx="312" cy="237" r="16" fill="#4f46e5"/>
</svg>
